<?xml version="1.0" standalone="no"?>
<!DOCTYPE svg PUBLIC "-//W3C//DTD SVG 20010904//EN"
 "http://www.w3.org/TR/2001/REC-SVG-20010904/DTD/svg10.dtd">
<svg version="1.0" xmlns="http://www.w3.org/2000/svg"
 width="351.000000pt" height="351.000000pt" viewBox="0 0 351.000000 351.000000"
 preserveAspectRatio="xMidYMid meet">

<g transform="translate(0.000000,351.000000) scale(0.100000,-0.100000)"
fill="#000000" stroke="none">
<path d="M1875 2710 c-4 -6 -5 -27 -3 -48 4 -48 -22 -51 -34 -4 -7 27 -13 33
-31 30 -19 -3 -22 -9 -20 -45 1 -36 -1 -42 -23 -47 -32 -8 -40 -3 -48 35 -5
25 -10 30 -28 27 -20 -3 -23 -8 -20 -45 2 -39 0 -42 -29 -48 -17 -4 -31 -5
-33 -3 -1 1 -6 17 -12 33 -6 20 -16 30 -29 30 -17 0 -20 -7 -19 -43 1 -36 -3
-43 -22 -48 -28 -7 -44 2 -44 25 0 24 -26 45 -46 37 -13 -5 -15 -15 -10 -45 6
-38 5 -40 -25 -46 -17 -4 -31 -5 -33 -3 -1 1 -6 17 -12 33 -6 20 -16 30 -29
30 -17 0 -20 -6 -18 -42 1 -33 -2 -42 -18 -46 -13 -4 -22 0 -25 11 -16 49 -25
63 -42 60 -13 -3 -17 -14 -18 -48 -1 -56 -25 -67 -39 -18 -10 34 -41 50 -55
28 -4 -7 -4 -26 1 -42 5 -20 4 -30 -4 -33 -7 -2 -29 -9 -49 -15 -43 -13 -68
-43 -68 -81 0 -14 47 -201 105 -414 57 -214 103 -391 101 -393 -9 -9 -93 38
-120 66 -21 23 -30 44 -33 79 -5 42 -1 53 22 81 22 26 25 35 15 47 -28 34 -60
4 -60 -57 0 -74 -37 -63 -59 18 -20 75 -71 99 -119 56 -60 -54 -36 -102 58
-117 25 -4 53 -11 62 -16 20 -11 73 -77 66 -84 -2 -2 -21 0 -42 6 -65 18 -115
-11 -84 -48 10 -12 24 -14 68 -8 77 10 94 8 132 -15 18 -11 49 -25 69 -30 34
-9 38 -15 53 -69 21 -76 59 -111 118 -111 23 0 113 20 202 44 89 24 301 81
471 126 171 46 322 92 337 102 15 11 32 34 36 51 8 30 6 50 -12 117 -11 41 73
127 155 160 55 22 64 29 64 50 0 20 -6 26 -27 28 -20 2 -38 -7 -71 -37 -24
-23 -47 -41 -49 -41 -3 0 -2 19 2 43 7 34 19 52 65 94 41 36 56 56 52 67 -18
46 -65 22 -96 -48 l-18 -41 -8 54 -7 54 50 46 c28 26 54 59 58 74 15 61 -40
106 -90 74 -13 -9 -33 -13 -45 -10 -14 3 -29 -1 -42 -13 -27 -24 -20 -71 17
-127 18 -28 28 -58 32 -100 6 -65 -5 -71 -33 -16 -17 32 -36 37 -55 14 -15
-19 1 -42 32 -47 11 -2 29 -19 40 -38 24 -44 19 -98 -14 -146 -20 -29 -24 -31
-30 -16 -5 9 -41 139 -82 287 -99 360 -134 475 -151 502 -21 32 -61 39 -127
22 l-56 -15 -15 38 c-15 36 -39 49 -52 28z m189 -102 c8 -13 17 -34 21 -48 l6
-26 -507 -128 c-303 -76 -510 -124 -516 -118 -5 5 -10 28 -11 52 -2 40 0 44
30 56 31 13 33 13 45 -14 7 -15 23 -28 35 -30 19 -3 22 2 25 34 4 47 20 53 35
13 17 -44 47 -36 51 14 3 29 7 37 22 37 12 0 22 -9 26 -24 3 -14 12 -27 20
-30 20 -8 43 20 37 45 -10 36 51 57 64 22 12 -35 24 -43 45 -32 15 8 18 17 13
40 -4 16 -3 29 2 29 4 0 17 3 29 6 15 4 23 -1 32 -20 7 -16 20 -26 32 -26 20
0 24 8 21 46 -2 16 6 25 28 32 28 10 31 9 37 -14 4 -13 14 -29 24 -34 24 -13
44 12 36 44 -5 20 -1 26 23 34 28 10 30 8 40 -19 8 -24 16 -30 33 -27 19 2 23
9 23 37 0 44 20 51 34 11 8 -25 15 -31 33 -28 19 2 23 9 23 37 0 29 5 36 25
42 46 13 69 9 84 -13z m46 -133 c0 -3 47 -178 105 -389 58 -211 105 -390 105
-398 0 -30 -40 -47 -250 -103 -118 -31 -321 -86 -451 -121 -130 -35 -248 -64
-261 -64 -14 0 -32 8 -40 18 -9 9 -34 85 -56 167 -23 83 -70 258 -107 389 -36
132 -62 243 -58 247 8 7 974 257 1001 258 6 1 12 -1 12 -4z"/>
<path d="M1810 2351 c-65 -21 -126 -70 -158 -127 -9 -16 -12 -16 -51 -1 -58
24 -155 22 -211 -4 -150 -68 -191 -237 -91 -376 36 -49 124 -118 215 -168 68
-38 272 -125 292 -125 23 0 235 293 289 400 52 103 44 230 -19 313 -53 69
-188 114 -266 88z m149 -81 c102 -52 129 -176 67 -304 -28 -58 -168 -259 -213
-308 -25 -26 -26 -27 -67 -11 -22 8 -95 41 -161 73 -200 97 -273 181 -263 303
5 61 27 97 78 125 73 42 161 36 227 -14 17 -13 36 -24 41 -24 5 0 17 20 26 44
24 62 52 95 100 117 53 24 117 24 165 -1z"/>
<path d="M2150 1910 c0 -5 7 -10 15 -10 8 0 15 5 15 10 0 6 -7 10 -15 10 -8 0
-15 -4 -15 -10z"/>
<path d="M2066 1864 c-4 -9 -4 -19 -1 -22 2 -3 7 3 11 12 4 9 4 19 1 22 -2 3
-7 -3 -11 -12z"/>
<path d="M1959 1713 c-12 -16 -12 -17 2 -6 9 7 20 9 24 5 5 -4 5 -1 1 6 -9 16
-11 15 -27 -5z"/>
<path d="M1307 1694 c-8 -8 1 -24 14 -24 5 0 9 7 9 15 0 15 -12 20 -23 9z"/>
<path d="M1350 1540 c0 -5 5 -10 10 -10 6 0 10 5 10 10 0 6 -4 10 -10 10 -5 0
-10 -4 -10 -10z"/>
<path d="M2267 2496 c-8 -19 19 -28 33 -12 8 10 7 15 -6 20 -21 8 -21 8 -27
-8z"/>
<path d="M2365 2450 c-3 -6 1 -13 10 -16 19 -8 30 0 20 15 -8 14 -22 14 -30 1z"/>
<path d="M2292 2417 c-8 -9 -6 -16 8 -25 16 -10 21 -9 30 7 7 15 6 20 -6 25
-21 8 -20 8 -32 -7z"/>
<path d="M2290 2300 c0 -5 5 -10 10 -10 6 0 10 5 10 10 0 6 -4 10 -10 10 -5 0
-10 -4 -10 -10z"/>
<path d="M860 2105 c0 -10 7 -15 18 -13 21 4 19 22 -2 26 -10 2 -16 -3 -16
-13z"/>
<path d="M940 2100 c0 -5 5 -10 10 -10 6 0 10 5 10 10 0 6 -4 10 -10 10 -5 0
-10 -4 -10 -10z"/>
<path d="M820 2004 c0 -8 5 -12 10 -9 6 4 8 11 5 16 -9 14 -15 11 -15 -7z"/>
<path d="M910 1996 c0 -15 -8 -31 -20 -38 -11 -7 -20 -16 -20 -20 0 -5 9 -8
20 -8 11 0 29 -9 39 -19 20 -20 20 -20 27 2 3 12 16 32 27 45 l20 22 -20 0
c-11 0 -32 9 -47 21 l-26 20 0 -25z"/>
<path d="M2457 1826 c-16 -13 -38 -31 -50 -39 l-21 -14 26 -17 c74 -48 185 6
143 70 -20 31 -61 31 -98 0z"/>
<path d="M2650 1717 c0 -33 -44 -96 -98 -140 -58 -47 -202 -118 -304 -149 -72
-21 -104 -48 -59 -48 61 0 296 103 381 167 72 54 130 143 116 178 -9 24 -36
18 -36 -8z"/>
<path d="M1032 1500 c-46 -19 -41 -80 8 -100 39 -16 95 -1 133 34 35 32 34 46
-2 46 -16 0 -48 7 -71 15 -23 8 -43 15 -44 14 0 0 -11 -4 -24 -9z"/>
<path d="M2656 1444 c-3 -9 1 -29 11 -44 14 -25 15 -34 4 -71 -14 -45 -64
-104 -81 -94 -13 8 -13 35 0 35 15 0 50 61 50 87 0 22 -24 53 -41 53 -24 0
-57 -49 -63 -93 -13 -83 33 -130 93 -97 26 14 57 73 66 128 4 23 11 42 16 42
6 0 7 -15 3 -35 -18 -100 57 -140 102 -54 24 46 2 59 -24 15 -32 -55 -44 -46
-41 32 l3 67 -33 3 c-26 3 -31 7 -26 23 5 14 2 19 -13 19 -11 0 -23 -7 -26
-16z m-45 -77 c-1 -4 -1 -15 -1 -24 -1 -21 -27 -59 -36 -51 -9 10 16 90 27 86
6 -2 10 -7 10 -11z"/>
<path d="M2076 1378 c-22 -34 -36 -152 -36 -294 0 -145 -11 -195 -53 -230 -34
-28 -97 -33 -117 -8 -20 23 -16 71 8 97 17 18 22 36 22 78 0 54 0 54 40 71 99
41 103 210 7 268 -68 42 -154 12 -192 -66 -11 -23 -29 -45 -40 -50 -25 -11
-33 -54 -11 -54 9 0 16 7 16 15 0 8 4 15 9 15 15 0 23 -36 15 -75 -5 -27 -3
-35 8 -35 24 0 35 41 30 106 -4 59 -3 63 31 100 28 31 41 38 72 38 27 0 43 -6
56 -23 27 -34 43 -94 35 -136 -7 -34 -47 -85 -67 -85 -5 0 -10 44 -11 98 -2
78 -6 97 -18 97 -12 0 -16 -19 -18 -99 -1 -55 -8 -106 -14 -113 -7 -9 -7 -13
1 -13 19 0 13 -96 -9 -132 -28 -46 -25 -82 9 -120 39 -44 100 -46 153 -6 62
47 72 82 76 263 4 137 7 163 23 183 24 31 34 85 20 111 -15 27 -27 27 -45 -1z
m30 -53 c-4 -19 -11 -35 -15 -35 -5 0 -4 18 1 40 13 49 23 45 14 -5z"/>
<path d="M2448 1334 l-12 -26 -8 23 c-14 37 -26 9 -30 -68 -5 -106 -28 -121
-28 -20 0 63 -3 79 -17 84 -10 4 -24 -3 -39 -20 -18 -21 -23 -23 -28 -11 -12
31 -26 1 -26 -56 0 -64 -13 -110 -31 -110 -8 0 -10 22 -5 79 l7 79 -35 -2
c-48 -4 -64 -19 -82 -82 -12 -44 -13 -61 -4 -89 13 -40 42 -47 62 -16 9 15 15
17 28 8 10 -6 25 -7 36 -2 11 5 22 7 26 7 12 -3 35 48 51 112 21 79 28 81 21
5 -5 -52 -3 -67 9 -78 27 -22 74 6 91 54 8 22 22 60 30 85 l16 45 -5 -55 c-6
-75 9 -122 50 -159 64 -56 168 -51 220 10 44 54 21 71 -27 20 -38 -40 -86 -47
-143 -22 -55 25 -65 47 -65 152 0 78 0 79 -25 79 -18 0 -29 -8 -37 -26z m-262
-116 c-9 -62 -26 -108 -38 -108 -13 0 -6 82 11 123 17 44 35 34 27 -15z"/>
<path d="M960 1337 c0 -21 12 -28 27 -16 19 16 16 29 -7 29 -11 0 -20 -6 -20
-13z"/>
<path d="M1080 1290 c0 -5 5 -10 10 -10 6 0 10 5 10 10 0 6 -4 10 -10 10 -5 0
-10 -4 -10 -10z"/>
<path d="M1011 1238 c-7 -11 -11 -21 -9 -22 2 -1 11 -7 20 -14 14 -11 18 -10
27 6 7 14 6 22 -8 34 -16 14 -19 13 -30 -4z"/>
<path d="M1604 1201 c-5 -21 -12 -31 -25 -31 -27 0 -32 -18 -8 -25 20 -7 21
-12 16 -74 -7 -79 8 -135 39 -139 22 -3 48 21 58 56 10 29 -16 30 -29 1 -17
-38 -30 -26 -33 31 -5 82 4 118 31 122 26 4 26 21 0 28 -11 3 -18 14 -18 29 0
37 -24 38 -31 2z"/>
<path d="M1135 1179 c-4 -6 -7 -51 -6 -100 l2 -88 -40 -21 c-41 -21 -57 -15
-47 18 7 24 -10 93 -26 104 -25 17 -98 2 -129 -28 -52 -49 -59 -133 -14 -150
23 -9 27 0 14 29 -6 14 -9 37 -5 52 9 35 53 75 82 75 30 0 44 -27 44 -84 0
-40 -3 -47 -30 -61 -39 -20 -39 -39 -1 -30 31 7 30 12 16 -78 -3 -21 -19 -53
-36 -72 -26 -30 -28 -36 -15 -41 39 -15 84 58 93 150 5 60 7 64 40 80 47 22
50 21 57 -27 8 -54 47 -136 77 -164 81 -74 232 -91 347 -38 67 30 142 102 142
136 0 31 -26 22 -49 -16 -23 -39 -96 -90 -151 -105 -68 -19 -161 -12 -218 16
-42 21 -56 34 -77 79 -27 55 -44 170 -45 302 0 59 -11 86 -25 62z"/>
<path d="M970 1160 c0 -5 5 -10 10 -10 6 0 10 5 10 10 0 6 -4 10 -10 10 -5 0
-10 -4 -10 -10z"/>
<path d="M1464 1115 c-10 -24 12 -65 34 -65 17 0 18 -5 11 -42 -9 -46 -2 -105
14 -125 12 -16 49 -17 65 -1 19 19 14 27 -15 25 -27 -2 -28 -1 -28 53 0 30 3
70 7 88 7 30 6 32 -22 32 -22 0 -29 5 -32 22 -4 27 -26 35 -34 13z"/>
<path d="M1377 1042 c-20 -22 -37 -74 -37 -113 0 -33 -35 -79 -61 -79 -26 0
-24 22 5 50 28 25 41 69 31 100 -4 14 -15 20 -35 20 -37 0 -61 -43 -64 -110
-2 -82 53 -116 107 -66 17 16 33 22 50 19 18 -4 29 1 38 15 10 16 16 18 29 9
21 -13 50 -3 50 17 0 10 -6 13 -15 10 -12 -5 -15 6 -15 65 0 50 -4 71 -12 71
-7 0 -22 3 -33 6 -13 3 -27 -2 -38 -14z m39 -66 c-7 -63 -14 -86 -27 -86 -12
0 -11 82 1 114 18 47 33 31 26 -28z m-126 -25 c-7 -17 -19 -36 -27 -43 -13
-10 -14 -6 -8 28 9 47 24 69 38 55 7 -7 6 -20 -3 -40z"/>
<path d="M1945 999 c-10 -15 3 -25 16 -12 7 7 7 13 1 17 -6 3 -14 1 -17 -5z"/>
</g>
</svg>
